# xmcd CD database file
# Generated: Sun Jan 20 10:19:26 2002 by KSCD
# 
# Track frame offsets:
#       150
#       10912
#       23255
#       32710
#       42602
#       55605
#       67562
#       79929
#       88460
#       99025
#       107812
#
# Disc length: 1604 seconds
#
# Revision: 6
# Processed by: cddbd v1.4PL0 Copyright (c) Steve Scherf et al.
# Submitted via: Kscd 1.2.7
#
DISCID=7806420b
DTITLE=Dennis Agajanian - Pure Acoustic Bluegrass
DYEAR=1900
DGENRE=
TTITLE0=Cryin' Holy Unto the Lord
TTITLE1=Lonesome Fiddle Blues
TTITLE2=Hear Jurusalem Moan
TTITLE3=Be Thou my Vision
TTITLE4=Rawhide
TTITLE5=Amazing Grace
TTITLE6=Take Me in the Lifeboat
TTITLE7=Beat up in Bakersfield
TTITLE8=All I want To Be
TTITLE9=Sinkin' Creek
TTITLE10=Down in the Valley to Pray
EXTD=
EXTT0=
EXTT1=
EXTT2=
EXTT3=
EXTT4=
EXTT5=
EXTT6=
EXTT7=
EXTT8=
EXTT9=
EXTT10=
PLAYORDER=
